<?xml version="1.0" encoding="UTF-8"?>
<svg width="105px" height="105px" viewBox="0 0 105 105" version="1.1" xmlns="http://www.w3.org/2000/svg" xmlns:xlink="http://www.w3.org/1999/xlink">
    <!-- Generator: Sketch 52.2 (67145) - http://www.bohemiancoding.com/sketch -->
    <title>无课表icon</title>
    <desc>Created with Sketch.</desc>
    <defs>
        <linearGradient x1="50%" y1="0%" x2="50%" y2="100%" id="linearGradient-1">
            <stop stop-color="#FDFFFF" offset="0%"></stop>
            <stop stop-color="#F9FDFF" offset="100%"></stop>
        </linearGradient>
        <rect id="path-2" x="3.19744231e-14" y="-5.68434189e-14" width="44.6383467" height="46.8457052"></rect>
        <linearGradient x1="12.097286%" y1="0%" x2="63.9273494%" y2="70.8844146%" id="linearGradient-4">
            <stop stop-color="#ECECEC" offset="0%"></stop>
            <stop stop-color="#E7E7E7" offset="100%"></stop>
        </linearGradient>
        <path d="M0.00118023298,3.9375 C0.000394900391,3.90634043 0,3.87508901 0,3.84375 C0,1.72090549 1.81197964,0 4.04716981,0 C6.28235998,0 8.09433962,1.72090549 8.09433962,3.84375 C8.09433962,3.87508901 8.09394472,3.90634043 8.09315939,3.9375 L0.00118023298,3.9375 Z" id="path-5"></path>
        <path d="M0.00118023298,3.9375 C0.000394900391,3.90634043 0,3.87508901 0,3.84375 C0,1.72090549 1.81197964,0 4.04716981,0 C6.28235998,0 8.09433962,1.72090549 8.09433962,3.84375 C8.09433962,3.87508901 8.09394472,3.90634043 8.09315939,3.9375 L0.00118023298,3.9375 Z" id="path-7"></path>
    </defs>
    <g id="改版页面" stroke="none" stroke-width="1" fill="none" fill-rule="evenodd">
        <g id="画板" transform="translate(-51.000000, -381.000000)">
            <g id="无课表icon" transform="translate(51.000000, 381.000000)">
                <circle id="椭圆形-copy-2" fill-opacity="0.6" fill="#EEFCFD" fill-rule="nonzero" cx="52.5" cy="52.5" r="52.5"></circle>
                <g id="分组-6" transform="translate(31.000000, 24.000000)">
                    <g id="分组-5">
                        <g id="分组-2">
                            <rect id="矩形-copy-15" fill="#FFF4D8" fill-rule="nonzero" x="0" y="8" width="44.6383467" height="46.8457052"></rect>
                            <g id="矩形" transform="translate(0.000000, 6.000000)">
                                <mask id="mask-3" fill="white">
                                    <use xlink:href="#path-2"></use>
                                </mask>
                                <use id="Mask" fill="url(#linearGradient-1)" fill-rule="nonzero" xlink:href="#path-2"></use>
                                <polygon fill="#FFF3F3" fill-rule="nonzero" mask="url(#mask-3)" transform="translate(41.939340, 44.232233) rotate(-45.000000) translate(-41.939340, -44.232233) " points="34.4393398 40.232233 49.4393398 40.232233 41.7928932 48.232233"></polygon>
                                <polygon id="路径-2" fill="url(#linearGradient-4)" fill-rule="nonzero" mask="url(#mask-3)" points="33.4626866 47 34 35.9559915 44.513198 35.9559915"></polygon>
                            </g>
                            <rect id="矩形" fill="#FCF5B4" fill-rule="nonzero" x="5.76923077" y="9.2173913" width="8.31802526" height="8.54294804" rx="0.923076923"></rect>
                            <rect id="矩形-copy-10" fill="#FCE3B6" fill-rule="nonzero" x="5.76923077" y="20.7391304" width="8.31802526" height="8.54294804" rx="0.923076923"></rect>
                            <rect id="矩形-copy-13" fill="#C1E9FC" fill-rule="nonzero" x="5.76923077" y="33.4130435" width="8.31802526" height="8.54294804" rx="0.923076923"></rect>
                            <rect id="矩形-copy-8" fill="#E9E2E2" fill-rule="nonzero" x="18.4615385" y="9.2173913" width="8.31802526" height="8.54294804" rx="0.923076923"></rect>
                            <rect id="矩形-copy-11" fill="#D6FFBA" fill-rule="nonzero" x="18.4615385" y="20.7391304" width="8.31802526" height="8.54294804" rx="0.923076923"></rect>
                            <rect id="矩形-copy-14" fill="#E6E5E5" fill-rule="nonzero" x="18.4615385" y="33.4130435" width="8.31802526" height="8.54294804" rx="0.923076923"></rect>
                            <rect id="矩形-copy-9" fill="#F4C8FC" fill-rule="nonzero" x="31.1538462" y="9.2173913" width="8.31802526" height="8.54294804" rx="0.923076923"></rect>
                            <rect id="矩形-copy-12" fill="#FFCFCF" fill-rule="nonzero" x="31.1538462" y="20.7391304" width="8.31802526" height="8.54294804" rx="0.923076923"></rect>
                            <path d="M1.18323954,0.281018028 L43.9717547,0.281018028 C44.481556,0.281018028 44.8948316,0.694293643 44.8948316,1.20409495 L44.8948316,4.91781548 L0.260162617,4.91781548 L0.260162617,1.20409495 C0.260162617,0.694293643 0.673438233,0.281018028 1.18323954,0.281018028 Z" id="矩形" fill="#EDC57A" fill-rule="nonzero"></path>
                            <rect id="矩形-copy-5" fill="#DFB462" fill-rule="nonzero" x="0.260162617" y="4.91781548" width="44.634669" height="1.85471898"></rect>
                        </g>
                    </g>
                </g>
                <g id="闹钟" transform="translate(25.000000, 50.000000)">
                    <g id="分组-14" opacity="0.754789807">
                        <g id="分组-11" transform="translate(5.273585, 4.840278) rotate(-30.000000) translate(-5.273585, -4.840278) translate(1.226415, 1.652778)">
                            <rect id="矩形" fill="#7E3A37" fill-rule="nonzero" x="2.96134376" y="3.375" width="2.36907501" height="3" rx="0.384"></rect>
                            <g id="合并形状-copy-6">
                                <mask id="mask-6" fill="white">
                                    <use xlink:href="#path-5"></use>
                                </mask>
                                <use id="Mask" fill="#F2999D" fill-rule="nonzero" xlink:href="#path-5"></use>
                                <path d="M-2.36789478,3.9375 C-2.36868011,3.90634043 -2.36907501,3.87508901 -2.36907501,3.84375 C-2.36907501,1.72090549 -0.557095367,0 1.6780948,0 C3.91328497,0 5.72526461,1.72090549 5.72526461,3.84375 C5.72526461,3.87508901 5.72486971,3.90634043 5.72408438,3.9375 L-2.36789478,3.9375 Z" fill="#F17B7B" fill-rule="nonzero" mask="url(#mask-6)"></path>
                            </g>
                        </g>
                        <g id="分组-11-copy" transform="translate(20.726415, 4.840278) scale(-1, 1) rotate(-30.000000) translate(-20.726415, -4.840278) translate(16.679245, 1.652778)">
                            <rect id="矩形" fill="#7E3A37" fill-rule="nonzero" x="2.96134376" y="3.375" width="2.36907501" height="3" rx="0.384"></rect>
                            <g id="合并形状-copy-6">
                                <mask id="mask-8" fill="white">
                                    <use xlink:href="#path-7"></use>
                                </mask>
                                <use id="Mask" fill="#F2999D" fill-rule="nonzero" xlink:href="#path-7"></use>
                                <path d="M-2.36789478,3.9375 C-2.36868011,3.90634043 -2.36907501,3.87508901 -2.36907501,3.84375 C-2.36907501,1.72090549 -0.557095367,0 1.6780948,0 C3.91328497,0 5.72526461,1.72090549 5.72526461,3.84375 C5.72526461,3.87508901 5.72486971,3.90634043 5.72408438,3.9375 L-2.36789478,3.9375 Z" fill="#F17B7B" fill-rule="nonzero" mask="url(#mask-8)"></path>
                            </g>
                        </g>
                    </g>
                    <g id="分组-15" transform="translate(0.245283, 4.250000)" fill-rule="nonzero">
                        <ellipse id="椭圆形-copy-10" fill="#FEB1B1" cx="12.754717" cy="12.2777778" rx="12.754717" ry="12.2777778"></ellipse>
                        <ellipse id="椭圆形" fill="#FFFAF3" cx="12.754717" cy="12.2777778" rx="10.3018868" ry="9.91666667"></ellipse>
                        <rect id="矩形" fill="#D39E9A" x="13" y="12" width="6" height="1" rx="0.5"></rect>
                        <g id="分组-13" transform="translate(12.018868, 3.305556)" fill="#D39E9A">
                            <ellipse id="椭圆形" cx="0.735849057" cy="0.708333333" rx="1" ry="1"></ellipse>
                            <ellipse id="椭圆形-copy-11" cx="0.735849057" cy="17.2361111" rx="1" ry="1"></ellipse>
                        </g>
                        <g id="分组-12" transform="translate(3.433962, 11.569444)" fill="#D39E9A">
                            <ellipse id="椭圆形-copy-12" transform="translate(0.735849, 0.708333) rotate(-90.000000) translate(-0.735849, -0.708333) " cx="0.735849057" cy="0.708333333" rx="1" ry="1"></ellipse>
                            <ellipse id="椭圆形-copy-13" transform="translate(17.905660, 0.708333) rotate(-90.000000) translate(-17.905660, -0.708333) " cx="17.9056604" cy="0.708333333" rx="1" ry="1"></ellipse>
                        </g>
                        <ellipse id="椭圆形" fill="#D39E9A" cx="12.754717" cy="12.2777778" rx="1.22641509" ry="1.18055556"></ellipse>
                    </g>
                    <path d="M6.57767468,28.4011005 L7.35473355,31.6892213 C7.41570263,31.9472117 7.25598533,32.2057794 6.99799498,32.2667485 C6.96459737,32.2746411 6.93044964,32.2789294 6.89613752,32.2795397 L5.22297158,32.3093017 C4.95791683,32.3140165 4.73922544,32.1029692 4.73451068,31.8379145 C4.7337081,31.7927949 4.73927219,31.7477875 4.7510386,31.7042218 L5.64714567,28.3863389 C5.71626735,28.1304122 5.97977108,27.9789769 6.23569772,28.0480986 C6.40585489,28.0940553 6.53713836,28.2295712 6.57767468,28.4011005 Z" id="三角形" fill="#B25F59" fill-rule="nonzero" opacity="0.629673549" transform="translate(6.051072, 30.170377) rotate(-145.000000) translate(-6.051072, -30.170377) "></path>
                    <path d="M21.6027678,28.4011005 L22.3798266,31.6892213 C22.4407957,31.9472117 22.2810784,32.2057794 22.0230881,32.2667485 C21.9896905,32.2746411 21.9555427,32.2789294 21.9212306,32.2795397 L20.2480647,32.3093017 C19.9830099,32.3140165 19.7643185,32.1029692 19.7596038,31.8379145 C19.7588012,31.7927949 19.7643653,31.7477875 19.7761317,31.7042218 L20.6722388,28.3863389 C20.7413604,28.1304122 21.0048642,27.9789769 21.2607908,28.0480986 C21.430948,28.0940553 21.5622314,28.2295712 21.6027678,28.4011005 Z" id="三角形-copy" fill="#B25F59" fill-rule="nonzero" opacity="0.629673549" transform="translate(21.076165, 30.170377) scale(-1, 1) rotate(-145.000000) translate(-21.076165, -30.170377) "></path>
                </g>
            </g>
        </g>
    </g>
</svg>